# xmcd
#
# Track frame offsets: 
#        150
#        23867
#        49230
#        77650
#        99172
#        120867
#        141507
#        167750
#
# Disc length: 2544 seconds
#
# Revision: 3
# Processed by: cddbd v1.5.1PL2 Copyright (c) Steve Scherf et al.
# Submitted via: ExactAudioCopy v0.95b3
#
DISCID=5d09ee08
DTITLE=Miles Davis - Tutu
DYEAR=1986
DGENRE=Jazz
TTITLE0=Tutu
TTITLE1=Tomaas
TTITLE2=Portia
TTITLE3=Splatch
TTITLE4=Backyard Ritual
TTITLE5=Perfect Way
TTITLE6=Don't Lose Your Mind
TTITLE7=Full Nelson
EXTD=YEAR: 1986
EXTT0=
EXTT1=
EXTT2=
EXTT3=
EXTT4=
EXTT5=
EXTT6=
EXTT7=
PLAYORDER=
